Coordinates
version=1
nRows=29
nColumns=24
inDegrees=yes

Units are S.I. units (second, meters, Newtons, ...)
Angles are in degrees.

endheader
time	pelvis_tilt	pelvis_list	pelvis_rotation	pelvis_tx	pelvis_ty	pelvis_tz	hip_flexion_r	hip_adduction_r	hip_rotation_r	knee_angle_r	ankle_angle_r	subtalar_angle_r	mtp_angle_r	hip_flexion_l	hip_adduction_l	hip_rotation_l	knee_angle_l	ankle_angle_l	subtalar_angle_l	mtp_angle_l	lumbar_extension	lumbar_bending	lumbar_rotation
      3.28000000	     65.67954342	      4.50302304	     -1.50753846	      0.76885771	      1.02718836	     -0.28868624	     -0.68326818	    -10.30699722	     -2.56626672	    -57.02993577	     15.94170991	    -11.34370697	    -41.59699922	     -1.72166710	     -2.23310402	    -13.35629471	    -65.45941880	     10.88717062	     -1.78074738	-370994.64912575	      0.00000000	      0.00000000	      0.00000000
      3.29000000	     65.70277659	      4.51563571	     -1.51556714	      0.76859519	      1.02754826	     -0.28861437	     -0.72689800	    -10.31277169	     -2.55735285	    -56.66208475	     15.65849310	    -11.57169262	    -42.47155469	     -1.70828149	     -2.21349557	    -13.37112649	    -65.50124139	     10.38748994	     -1.42092640	-376892.03788669	      0.00000000	      0.00000000	      0.00000000
      3.30000000	     65.70711538	      4.51578351	     -1.51162124	      0.76839200	      1.02761795	     -0.28848707	     -0.75393749	    -10.31503116	     -2.55183435	    -56.32590690	     15.42040328	    -11.77781771	    -43.20461087	     -1.70848506	     -2.19363842	    -13.38358402	    -65.49973506	     10.19893903	     -1.30735489	-382896.25128475	      0.00000000	      0.00000000	      0.00000000
      3.31000000	     65.69622585	      4.50723950	     -1.50363428	      0.76838724	      1.02758633	     -0.28847371	     -0.75374151	    -10.31748044	     -2.54990545	    -56.03559710	     15.25637216	    -11.93790579	    -43.68813263	     -1.72305724	     -2.19207366	    -13.37845786	    -65.43416080	     10.28874485	     -1.48287732	-389008.40189089	      0.00000000	      0.00000000	      0.00000000
      3.32000000	     65.67961134	      4.50129027	     -1.50118826	      0.76859967	      1.02748462	     -0.28862356	     -0.73175727	    -10.32465797	     -2.55093331	    -55.79597843	     15.18297437	    -12.03507691	    -43.85492425	     -1.73874123	     -2.21529492	    -13.35382442	    -65.31662329	     10.60755588	     -1.93256514	-395229.63831191	      0.00000000	      0.00000000	      0.00000000
      3.33000000	     65.66284154	      4.50447567	     -1.50590288	      0.76888878	      1.02711996	     -0.28875387	     -0.70552249	    -10.33682549	     -2.55469310	    -55.60311723	     15.20281188	    -12.06227487	    -43.68828011	     -1.74088321	     -2.24607600	    -13.32625305	    -65.19132078	     11.09618862	     -2.58207768	-401561.13927805	      0.00000000	      0.00000000	      0.00000000
      3.34000000	     65.65529473	      4.51862409	     -1.51476560	      0.76896030	      1.02677940	     -0.28865832	     -0.69270823	    -10.35097829	     -2.56138354	    -55.45046321	     15.30522892	    -12.02376944	    -43.22385254	     -1.71363211	     -2.26072348	    -13.31764516	    -65.10718743	     11.68161934	     -3.31250422	-408004.10491788	      0.00000000	      0.00000000	      0.00000000
      3.35000000	     65.66550452	      4.54307038	     -1.52590507	      0.76869453	      1.02696159	     -0.28841524	     -0.69702713	    -10.36439331	     -2.57085266	    -55.33424454	     15.46860181	    -11.93482840	    -42.54326731	     -1.65386649	     -2.25257750	    -13.33517762	    -65.08659813	     12.27012680	     -3.98739616	-414559.74632516	      0.00000000	      0.00000000	      0.00000000
      3.36000000	     65.68506801	      4.56831621	     -1.53583288	      0.76834900	      1.02756569	     -0.28829375	     -0.70319566	    -10.37508523	     -2.58229013	    -55.25310463	     15.66326724	    -11.81896678	    -41.76034170	     -1.58957887	     -2.23091582	    -13.36634369	    -65.11830863	     12.75812505	     -4.48526879	-421229.27444519	      0.00000000	      0.00000000	      0.00000000
      3.37000000	     65.68961265	      4.57535414	     -1.53682883	      0.76827181	      1.02790625	     -0.28838812	     -0.68990793	    -10.38038711	     -2.59440156	    -55.20328133	     15.85477213	    -11.70325850	    -41.00214867	     -1.56731521	     -2.20458624	    -13.39208929	    -65.17527845	     13.06992837	     -4.73170477	-428013.88977177	      0.00000000	      0.00000000	      0.00000000
      3.38000000	     65.66587384	      4.55457568	     -1.52591878	      0.76854133	      1.02753720	     -0.28856533	     -0.65291525	    -10.37824928	     -2.60531631	    -55.17482045	     16.00801823	    -11.61316209	    -40.38827555	     -1.60651013	     -2.18022670	    -13.40106706	    -65.23378734	     13.19816919	     -4.72108494	-434914.77432733	      0.00000000	      0.00000000	      0.00000000
      3.39000000	     65.63250469	      4.52146928	     -1.51306519	      0.76890584	      1.02679791	     -0.28866875	     -0.61546773	    -10.37050105	     -2.61249151	    -55.15302547	     16.09291037	    -11.56828752	    -40.01197049	     -1.67118927	     -2.17004424	    -13.39476140	    -65.28110854	     13.20599114	     -4.51408967	-441933.08616667	      0.00000000	      0.00000000	      0.00000000
      3.40000000	     65.62548574	      4.50457080	     -1.51335679	      0.76902227	      1.02644916	     -0.28864121	     -0.61187390	    -10.36262496	     -2.61364173	    -55.12471332	     16.09089600	    -11.57971340	    -39.92622862	     -1.69890891	     -2.18757190	    -13.38405375	    -65.31446199	     13.17774734	     -4.20868749	-449069.95591944	      0.00000000	      0.00000000	      0.00000000
      3.41000000	     65.66167476	      4.51683927	     -1.53017600	      0.76877038	      1.02686026	     -0.28851568	     -0.65680383	    -10.35830572	     -2.60864696	    -55.08497894	     16.00019988	    -11.64866414	    -40.13658405	     -1.66242076	     -2.23195301	    -13.38104345	    -65.33640332	     13.15315047	     -3.90177196	-456326.48595028	      0.00000000	      0.00000000	      0.00000000
      3.42000000	     65.71900353	      4.54233598	     -1.54929770	      0.76837564	      1.02761136	     -0.28839631	     -0.72991885	    -10.35446655	     -2.60061881	    -55.04004908	     15.83717971	    -11.76619173	    -40.60112255	     -1.60097743	     -2.28135065	    -13.39059741	    -65.34906814	     13.09887246	     -3.66475020	-463703.75393654	      0.00000000	      0.00000000	      0.00000000
      3.43000000	     65.75568782	      4.55156558	     -1.55157944	      0.76818468	      1.02794853	     -0.28838963	     -0.79216635	    -10.34353989	     -2.59431762	    -55.00475041	     15.63276346	    -11.91390869	    -41.23741365	     -1.58587391	     -2.30671049	    -13.40700504	    -65.34840692	     12.94263654	     -3.54328457	-471202.82200137	      0.00000000	      0.00000000	      0.00000000
      3.44000000	     65.75049379	      4.52942936	     -1.53178920	      0.76831230	      1.02759857	     -0.28847935	     -0.81858746	    -10.32222430	     -2.59249058	    -54.99620404	     15.42535030	    -12.06620147	    -41.93552043	     -1.65217210	     -2.29552413	    -13.41765260	    -65.32128537	     12.64112391	     -3.57067045	-478824.75076783	      0.00000000	      0.00000000	      0.00000000
      3.45000000	     65.72256627	      4.49020501	     -1.50492637	      0.76856174	      1.02703229	     -0.28854572	     -0.81640946	    -10.29805379	     -2.59323224	    -55.02718203	     15.25293748	    -12.19416933	    -42.57557771	     -1.76520124	     -2.26469910	    -13.41028765	    -65.25050649	     12.22353218	     -3.77389219	-486570.61608653	      0.00000000	      0.00000000	      0.00000000
      3.46000000	     65.71047589	      4.46614109	     -1.49325653	      0.76868540	      1.02688951	     -0.28854494	     -0.81346787	    -10.28573669	     -2.59131959	    -55.10271510	     15.14670482	    -12.27084729	    -43.04747798	     -1.85401480	     -2.24822392	    -13.37999080	    -65.12797795	     11.77728766	     -4.16138297	-494441.52530816	      0.00000000	      0.00000000	      0.00000000
      3.47000000	     65.73270383	      4.47838298	     -1.50544003	      0.76865576	      1.02720872	     -0.28855198	     -0.83130743	    -10.29505960	     -2.58308788	    -55.22142131	     15.12678116	    -12.27664533	    -43.26932322	     -1.87572120	     -2.26597877	    -13.33384127	    -64.96749064	     11.39453295	     -4.70196233	-502438.63075669	      0.00000000	      0.00000000	      0.00000000
      3.48000000	     65.77152134	      4.51713911	     -1.52802891	      0.76857718	      1.02747967	     -0.28856518	     -0.86851036	    -10.32176696	     -2.57064683	    -55.37966061	     15.19993825	    -12.20374271	    -43.20114736	     -1.84604479	     -2.30231629	    -13.28980460	    -64.80526009	     11.12780207	     -5.31638768	-510563.13944838	      0.00000000	      0.00000000	      0.00000000
      3.49000000	     65.79664226	      4.55395963	     -1.54021485	      0.76846053	      1.02744160	     -0.28847154	     -0.90540520	    -10.35111923	     -2.56111097	    -55.57485487	     15.35896541	    -12.05832195	    -42.85132672	     -1.81104066	     -2.32240472	    -13.26503370	    -64.68108071	     10.98680830	     -5.89541062	-518816.31831232	      0.00000000	      0.00000000	      0.00000000
      3.50000000	     65.79837664	      4.57238396	     -1.53650870	      0.76832933	      1.02741269	     -0.28832941	     -0.92085921	    -10.37074048	     -2.56107137	    -55.80525886	     15.58374834	    -11.85981365	    -42.27471222	     -1.79940988	     -2.31156707	    -13.26054609	    -64.61273698	     10.96711967	     -6.33602980	-527199.49387717	      0.00000000	      0.00000000	      0.00000000
      3.51000000	     65.78433726	      4.57414737	     -1.52684668	      0.76831437	      1.02757341	     -0.28831643	     -0.90591755	    -10.37930439	     -2.57138181	    -56.06597624	     15.84399357	    -11.63691841	    -41.56314959	     -1.81380974	     -2.28378587	    -13.26252076	    -64.59461587	     11.07896697	     -6.57282696	-535714.04543483	      0.00000000	      0.00000000	      0.00000000
      3.52000000	     65.75928412	      4.56527631	     -1.52004012	      0.76849418	      1.02752595	     -0.28843689	     -0.86811034	    -10.38338667	     -2.58677705	    -56.34460998	     16.10334983	    -11.42135348	    -40.83029533	     -1.84706888	     -2.25726355	    -13.25931770	    -64.61845381	     11.35682936	     -6.59107308	-544361.39164511	      0.00000000	      0.00000000	      0.00000000
      3.53000000	     65.73197138	      4.55465558	     -1.51854376	      0.76879942	      1.02711521	     -0.28861555	     -0.82788721	    -10.38856118	     -2.59973504	    -56.62161274	     16.32473726	    -11.24144775	    -40.19338295	     -1.87883612	     -2.24032825	    -13.25243206	    -64.68420694	     11.84438159	     -6.42156107	-553142.97141974	      0.00000000	      0.00000000	      0.00000000
      3.54000000	     65.71806777	      4.55177943	     -1.51993893	      0.76900542	      1.02681243	     -0.28875404	     -0.80852380	    -10.39514460	     -2.60448625	    -56.87687818	     16.47657757	    -11.11768232	    -39.75481776	     -1.88048488	     -2.23064832	    -13.25370982	    -64.79556186	     12.55243404	     -6.11903573	-562060.22019197	      0.00000000	      0.00000000	      0.00000000
      3.55000000	     65.72432797	      4.55982609	     -1.51939691	      0.76890255	      1.02696220	     -0.28871170	     -0.82317943	    -10.40111482	     -2.59846534	    -57.09887880	     16.53885490	    -11.06091208	    -39.58627060	     -1.83999053	     -2.22354892	    -13.27167293	    -64.94702542	     13.41105201	     -5.73455627	-571114.54459328	      0.00000000	      0.00000000	      0.00000000
      3.56000000	     65.74509783	      4.57870943	     -1.51658726	      0.76860269	      1.02731941	     -0.28854336	     -0.86724570	    -10.40596352	     -2.58208503	    -57.29027188	     16.50723498	    -11.07251208	    -39.71745724	     -1.77103327	     -2.22636509	    -13.29798943	    -65.11151260	     14.25515395	     -5.29748630	-580307.30012896	      0.00000000	      0.00000000	      0.00000000
